# xmcd
#
# Track frame offsets: 
#        150
#        19409
#        40371
#        60602
#        74332
#        103731
#        129388
#        151058
#        165165
#        186614
#        209694
#
# Disc length: 3070 seconds
#
# Revision: 0
# Processed by: cddbd v1.5.2PL0 Copyright (c) Steve Scherf et al.
# Submitted via: ExactAudioCopy v0.95a5
#
DISCID=9c0bfc0b
DTITLE=额尔古纳乐队 - 鸿雁
DYEAR=2007
DGENRE=
TTITLE0=鸿雁
TTITLE1=寻
TTITLE2=莫尼山
TTITLE3=两座山(蒙语)
TTITLE4=老榆树
TTITLE5=候鸟
TTITLE6=无言的诉说
TTITLE7=漂亮姑娘
TTITLE8=夜色
TTITLE9=毕业歌
TTITLE10=鸿雁(蒙语)
EXTD=
EXTT0=
EXTT1=
EXTT2=
EXTT3=
EXTT4=
EXTT5=
EXTT6=
EXTT7=
EXTT8=
EXTT9=
EXTT10=
PLAYORDER=
